<svg
  t="1675421317553"
  class="icon"
  viewBox="0 0 1024 1024"
  version="1.1"
  xmlns="http://www.w3.org/2000/svg"
  p-id="20978"
  width="200"
  height="200"
><path
    d="M229.443715 343.118259l565.172804 0 0 410.010794c0 37.525595-30.237317 67.762912-67.040108 67.762912l-46.319715 0 0 139.742183c0 35.116247-28.249605 63.365852-63.305618 63.365852-35.116247 0-63.546553-28.309839-63.546553-63.365852l0-139.742183-84.809049 0 0 139.742183c0 35.056013-28.430306 63.365852-63.546553 63.365852-34.393443 0-62.763515-28.309839-62.763515-63.365852l-0.542103-139.742183-45.596911 0c-37.465361 0-67.702678-30.177084-67.702678-67.762912l0-410.010794zM141.984383 331.432921c-35.056013 0-63.426086 28.370073-63.426086 62.763515l0 264.787344c0 35.116247 28.370073 63.365852 63.426086 63.365852s62.763515-28.309839 62.763515-63.365852l0-264.787344c0-34.393443-28.189371-62.763515-62.763515-62.763515zM796.42353 320.952257l-569.449397 0c0-97.879762 58.547156-182.869512 145.343917-227.141282l-43.7899-80.59269c-2.469582-4.336826-1.264908-9.878327 3.071919-12.347908 4.276593-1.867245 9.878327-0.662571 12.347908 3.734489l44.271769 81.255261c37.646062-16.684735 79.508484-25.900491 123.780253-25.900491s86.134191 9.215756 123.780253 25.840257l44.271769-81.255261c2.469582-4.336826 8.071316-5.5415 12.347908-3.734489 4.336826 2.469582 5.5415 8.011082 3.071919 12.347908l-43.7899 80.59269c86.254658 44.332003 144.74158 129.321753 144.74158 227.201515zM406.048922 194.160319c0-12.950245-10.42043-24.033246-23.912779-24.033246-13.010479 0-23.430909 11.083001-23.430909 24.033246 0 12.890012 10.42043 23.973012 23.430909 23.973012 13.492349 0.060234 23.912779-11.022767 23.912779-23.973012zM665.294766 194.160319c0-12.950245-10.42043-24.033246-23.430909-24.033246-13.552582 0-23.912779 11.083001-23.912779 24.033246 0 12.890012 10.42043 23.973012 23.912779 23.973012 13.010479 0.060234 23.430909-11.022767 23.430909-23.973012zM882.015617 331.432921c-34.51391 0-62.763515 27.707502-62.763515 62.763515l0 264.787344c0 35.116247 28.249605 63.365852 62.763515 63.365852 35.056013 0 63.426086-28.309839 63.426086-63.365852l0-264.787344c-0.060234-35.056013-28.370073-62.763515-63.426086-62.763515z"
    fill="#000000"
    p-id="20979"
  /></svg>
