<svg
  t="1672802974070"
  class="icon"
  viewBox="0 0 1024 1024"
  version="1.1"
  xmlns="http://www.w3.org/2000/svg"
  p-id="7835"
  width="200"
  height="200"
><path
    d="M533.333333 21.333333c23.466667 0 42.666667 19.2 42.666667 42.666667v106.666667h256c17.066667 0 32 8.533333 38.4 23.466666l106.666667 213.333334c6.4 12.8 6.4 25.6 0 38.4l-106.666667 213.333333c-6.4 14.933333-21.333333 23.466667-38.4 23.466667H576v277.333333c0 23.466667-19.2 42.666667-42.666667 42.666667h-170.666666c-23.466667 0-42.666667-19.2-42.666667-42.666667V682.666667H85.333333c-23.466667 0-42.666667-19.2-42.666666-42.666667V213.333333c0-23.466667 19.2-42.666667 42.666666-42.666666h234.666667V64c0-23.466667 19.2-42.666667 42.666667-42.666667h170.666666z m273.066667 234.666667H128v341.333333h678.4l85.333333-170.666666-85.333333-170.666667zM405.333333 917.333333h85.333334V682.666667h-85.333334v234.666666z m0-746.666666h85.333334V106.666667h-85.333334v64z"
    fill="#333333"
    p-id="7836"
  /></svg>
