<svg
  t="1675653300007"
  class="icon"
  viewBox="0 0 1024 1024"
  version="1.1"
  xmlns="http://www.w3.org/2000/svg"
  p-id="5618"
  width="200"
  height="200"
><path
    d="M103.148983 912.896C-26.313874 799.012571-42.222446 204.873143 103.148983 87.771429 248.410697-29.257143 813.036983-29.257143 926.518126 87.771429c113.481143 117.065143 129.389714 628.370286 0 793.234285-129.389714 164.864-694.016 145.737143-823.442286 31.817143zM508.83584 171.629714a36.571429 36.571429 0 0 0-36.571429 36.571429h-18.285714a18.285714 18.285714 0 0 0-18.285714 18.285714v109.714286a18.285714 18.285714 0 0 0 18.285714 18.285714h18.285714v36.571429H241.608411a18.285714 18.285714 0 0 0-14.884571 7.643428l-39.350857 54.857143a18.285714 18.285714 0 0 0 0 21.321143l39.350857 54.857143a18.285714 18.285714 0 0 0 14.884571 7.606857h230.692572v256a36.571429 36.571429 0 1 0 73.142857 0v-256h18.285714a18.285714 18.285714 0 0 0 18.285715-18.285714v-109.714286a18.285714 18.285714 0 0 0-18.285715-18.285714h-18.285714v-36.571429h230.729143a18.285714 18.285714 0 0 0 14.848-7.643428l39.350857-54.857143a18.285714 18.285714 0 0 0 0-21.284572l-39.350857-54.857143a18.285714 18.285714 0 0 0-14.848-7.643428h-230.729143a36.571429 36.571429 0 0 0-36.571429-36.571429z"
    fill="#2c2c2c"
    p-id="5619"
  /></svg>
