<?xml version="1.0" encoding="UTF-8" ?>
<svg
  width="63px"
  height="63px"
  viewBox="0 0 63 63"
  version="1.1"
  xmlns="http://www.w3.org/2000/svg"
  xmlns:xlink="http://www.w3.org/1999/xlink"
>
    <title>#f5fef6ff</title>
    <g
    id="页面-1"
    stroke="none"
    stroke-width="1"
    fill="none"
    fill-rule="evenodd"
  >
        <g
      id="clipboard"
      transform="translate(0.180000, 0.342405)"
      fill="#fff"
      fill-rule="nonzero"
    >
            <g id="#f5fef6ff">
                <path
          d="M30.34,0.107595471 C34.73,-0.202404529 39.24,0.0575954707 43.17,2.22759547 C55.2,7.38759547 62.94,20.7675955 62.16,33.6975955 C60.7,41.5975955 57.54,49.7875955 51.15,54.9975955 C45.43,59.4475955 38.18,63.7775955 30.65,61.8675955 C29.74,58.1475955 30.3,54.2575955 30.38,50.4775955 C36.44,48.5175955 43.16,46.2175955 46.41,40.2475955 C48.45,37.6675955 48.92,34.2175955 47.11,31.3775955 C45.1,36.2175955 43.29,41.5975955 38.67,44.5975955 C36.39,46.7275955 33.17,46.1675955 30.34,46.2075955 C30.16,30.8475955 30.08,15.4775955 30.34,0.107595471 M38.12,17.9675955 C37.22,19.8275955 36.43,22.6575955 38.48,24.0675955 C40.83,24.9775955 44.02,23.5475955 43.46,20.6875955 C43.99,17.4975955 40.13,18.0575955 38.12,17.9675955 Z"
          id="形状"
        />
                <path
          d="M10.23,5.26759547 C15.39,3.32759547 20.9,2.30759547 26.4,2.06759547 C26.35,3.08759547 26.31,4.11759547 26.27,5.14759547 C24.15,5.69759547 21.99,6.09759547 19.8,6.20759547 C15.24,6.37759547 11.28,9.42759547 6.65,9.14759547 C7.55,7.60759547 8.32,5.75759547 10.23,5.26759547 Z"
          id="路径"
        />
                <path
          d="M1.38,19.1975955 C7.59,12.2475955 17.09,8.48759547 26.37,9.15759547 C26.36,10.1175955 26.35,11.0875955 26.34,12.0575955 C21.77,13.2375955 16.9,13.2575955 12.55,15.2075955 C7.82,17.2775955 4.55,21.5175955 0,23.8875955 C0.31,22.2975955 0.02,20.3675955 1.38,19.1975955 Z"
          id="路径"
        />
                <path
          d="M5.41,25.1875955 C10.36,19.0075955 18.51,15.2075955 26.47,16.1375955 C26.38,17.0575955 26.3,17.9775955 26.22,18.8975955 C21.99,19.7775955 17.6,20.4075955 13.78,22.5375955 C7.73,25.8575955 3.83,32.7575955 4.24,39.6475955 C4.23,42.9675955 5.17,46.1775955 5.59,49.4475955 C4.55,49.3075955 3.52,49.1675955 2.48,49.0375955 C0.39,41.1975955 0.06,31.8575955 5.41,25.1875955 Z"
          id="路径"
        />
                <path
          d="M8.86,33.6175955 C11.08,27.9475955 16.51,23.1675955 22.82,23.1775955 C24.71,22.8375955 25.77,24.6075955 27.01,25.6575955 C23.39,26.5475955 19.54,27.1375955 16.38,29.2375955 C12.12,32.7775955 10.19,39.0075955 12.07,44.2975955 C13.26,49.5575955 17.77,53.3075955 18.78,58.6175955 C17.35,58.2275955 15.77,57.9275955 14.81,56.6675955 C9.49,50.4175955 6.69,41.6975955 8.86,33.6175955 Z"
          id="路径"
        />
                <path
          d="M17.39,33.1775955 C19.32,30.7075955 22.47,29.8975955 25.48,29.9875955 C25.88,30.7775955 26.29,31.5675955 26.7,32.3575955 C24.11,33.4575955 21.61,34.7575955 19.29,36.3375955 C19.35,39.5575955 18.68,43.0575955 20.4,45.9975955 C22.2,49.7075955 25.68,52.4275955 26.79,56.4975955 C22.5,56.0575955 19.85,52.0875955 17.8,48.6975955 C15.47,44.0375955 13.7,37.6075955 17.39,33.1775955 Z"
          id="路径"
        />
                <path
          d="M23.35,38.2075955 C23.73,38.1375955 24.5,38.0075955 24.89,37.9375955 C26.61,40.4275955 27.35,43.4175955 27.58,46.3975955 C26.49,46.2975955 25.41,46.1975955 24.33,46.1075955 C23.13,43.6475955 22.97,40.8775955 23.35,38.2075955 Z"
          id="路径"
        />
            </g>
        </g>
    </g>
</svg>
